<!-- icon666.com - MILLIONS vector ICONS FREE --><svg id="Layer_1" viewBox="0 0 32 32" xmlns="http://www.w3.org/2000/svg"><g id="e-commerce"><g><g><g><g><path d="m12 28c0 1.104.897 2 2 2s2-.896 2-2-.897-2-2-2-2 .896-2 2zm2-1c.552 0 1 .449 1 1s-.448 1-1 1-1-.449-1-1 .448-1 1-1z" fill="#455a64" style="fill: rgb(245, 189, 36);"></path></g><g><path d="m22 28c0 1.104.897 2 2 2s2-.896 2-2-.897-2-2-2-2 .896-2 2zm2-1c.552 0 1 .449 1 1s-.448 1-1 1-1-.449-1-1 .448-1 1-1z" fill="#455a64" style="fill: rgb(245, 189, 36);"></path></g></g><g><circle cx="24" cy="28" fill="#ff8a80" r="1" style="fill: rgb(33, 33, 33);"></circle></g><g><circle cx="14" cy="28" fill="#ff8a80" r="1" style="fill: rgb(33, 33, 33);"></circle></g><g><path d="m8.5 20h-7c-.276 0-.5-.224-.5-.5 0-.276.224-.5.5-.5h7c.276 0 .5.224.5.5 0 .276-.224.5-.5.5z" fill="#455a64" style="fill: rgb(245, 189, 36);"></path></g><g><path d="m6.5 23h-4c-.276 0-.5-.224-.5-.5 0-.276.224-.5.5-.5h4c.276 0 .5.224.5.5 0 .276-.224.5-.5.5z" fill="#455a64" style="fill: rgb(245, 189, 36);"></path></g><g><path d="m6.5 16h-3c-.276 0-.5-.224-.5-.5 0-.276.224-.5.5-.5h3c.276 0 .5.224.5.5 0 .276-.224.5-.5.5z" fill="#455a64" style="fill: rgb(245, 189, 36);"></path></g></g><g><g><g><path d="m26 18.5c0 .275-.225.5-.5.5-.275 0-.5-.225-.5-.5 0-.275.225-.5.5-.5.275 0 .5.225.5.5z" fill="#455a64" style="fill: rgb(245, 189, 36);"></path></g></g><g><g><path d="m23 18.5c0 .275-.225.5-.5.5-.275 0-.5-.225-.5-.5 0-.275.225-.5.5-.5.275 0 .5.225.5.5z" fill="#455a64" style="fill: rgb(245, 189, 36);"></path></g></g><g><g><path d="m20 18.5c0 .275-.225.5-.5.5-.275 0-.5-.225-.5-.5 0-.275.225-.5.5-.5.275 0 .5.225.5.5z" fill="#455a64" style="fill: rgb(245, 189, 36);"></path></g></g><g><g><path d="m17 18.5c0 .275-.225.5-.5.5-.275 0-.5-.225-.5-.5 0-.275.225-.5.5-.5.275 0 .5.225.5.5z" fill="#455a64" style="fill: rgb(245, 189, 36);"></path></g></g><g><g><path d="m14 18.5c0 .275-.225.5-.5.5-.275 0-.5-.225-.5-.5 0-.275.225-.5.5-.5.275 0 .5.225.5.5z" fill="#455a64" style="fill: rgb(245, 189, 36);"></path></g></g></g><g><g><g><path d="m28 15.5c0 .275-.225.5-.5.5-.275 0-.5-.225-.5-.5 0-.275.225-.5.5-.5.275 0 .5.225.5.5z" fill="#455a64" style="fill: rgb(245, 189, 36);"></path></g></g><g><g><path d="m25 15.5c0 .275-.225.5-.5.5-.275 0-.5-.225-.5-.5 0-.275.225-.5.5-.5.275 0 .5.225.5.5z" fill="#455a64" style="fill: rgb(245, 189, 36);"></path></g></g><g><g><path d="m22 15.5c0 .275-.225.5-.5.5-.275 0-.5-.225-.5-.5 0-.275.225-.5.5-.5.275 0 .5.225.5.5z" fill="#455a64" style="fill: rgb(245, 189, 36);"></path></g></g><g><g><path d="m19 15.5c0 .275-.225.5-.5.5-.275 0-.5-.225-.5-.5 0-.275.225-.5.5-.5.275 0 .5.225.5.5z" fill="#455a64" style="fill: rgb(245, 189, 36);"></path></g></g><g><g><path d="m16 15.5c0 .275-.225.5-.5.5-.275 0-.5-.225-.5-.5 0-.275.225-.5.5-.5.275 0 .5.225.5.5z" fill="#455a64" style="fill: rgb(245, 189, 36);"></path></g></g><g><g><path d="m13 15.5c0 .275-.225.5-.5.5-.275 0-.5-.225-.5-.5 0-.275.225-.5.5-.5.275 0 .5.225.5.5z" fill="#455a64" style="fill: rgb(245, 189, 36);"></path></g></g></g><g><g><g><path d="m27 12.5c0 .275-.225.5-.5.5-.275 0-.5-.225-.5-.5 0-.275.225-.5.5-.5.275 0 .5.225.5.5z" fill="#455a64" style="fill: rgb(245, 189, 36);"></path></g></g><g><g><path d="m24 12.5c0 .275-.225.5-.5.5-.275 0-.5-.225-.5-.5 0-.275.225-.5.5-.5.275 0 .5.225.5.5z" fill="#455a64" style="fill: rgb(245, 189, 36);"></path></g></g><g><g><path d="m21 12.5c0 .275-.225.5-.5.5-.275 0-.5-.225-.5-.5 0-.275.225-.5.5-.5.275 0 .5.225.5.5z" fill="#455a64" style="fill: rgb(245, 189, 36);"></path></g></g><g><g><path d="m18 12.5c0 .275-.225.5-.5.5-.275 0-.5-.225-.5-.5 0-.275.225-.5.5-.5.275 0 .5.225.5.5z" fill="#455a64" style="fill: rgb(245, 189, 36);"></path></g></g><g><g><path d="m15 12.5c0 .275-.225.5-.5.5-.275 0-.5-.225-.5-.5 0-.275.225-.5.5-.5.275 0 .5.225.5.5z" fill="#455a64" style="fill: rgb(245, 189, 36);"></path></g></g><g><g><path d="m12 12.5c0 .275-.225.5-.5.5-.275 0-.5-.225-.5-.5 0-.275.225-.5.5-.5.275 0 .5.225.5.5z" fill="#455a64" style="fill: rgb(245, 189, 36);"></path></g></g></g></g><g><path d="m30.528 9.48c-.232-.305-.607-.48-1.028-.48h-18.5c-.276 0-.5.224-.5.5s.224.5.5.5h18.5c.108 0 .19.031.233.086.042.056.049.143.021.248l-2.473 9.068c-.089.324-.475.638-.809.657l-.472.029-13.533.795c-.2.012-.392.055-.578.11l-3.963-18.504c-.058-.27-.328-.489-.605-.489h-5.321c-.552 0-1 .447-1 1s.448 1 1 1 1-.447 1-1h4.013l3.959 18.49c-.587.487-.972 1.213-.972 2.01 0 1.379 1.121 2.5 2.5 2.5h14.5c.276 0 .5-.224.5-.5s-.224-.5-.5-.5h-14.5c-.827 0-1.5-.673-1.5-1.5 0-.843.685-1.568 1.525-1.619l14.006-.823c.759-.044 1.513-.655 1.715-1.392l2.473-9.068c.111-.407.042-.813-.191-1.118z" fill="#455a64" style="fill: rgb(245, 189, 36);"></path></g></g></svg>